<mxfile host="app.diagrams.net" modified="2021-08-31T22:00:31.002Z" agent="5.0 (Windows)" etag="0IWIGZtctGyAKhgQi_Fy" version="15.0.4" type="github">
  <diagram id="kgpKYQtTHZ0yAKxKKP6v" name="Page-1">
    <mxGraphModel dx="868" dy="440" grid="1" gridSize="10" guides="1" tooltips="1" connect="1" arrows="1" fold="1" page="1" pageScale="1" pageWidth="850" pageHeight="1100" math="0" shadow="0">
      <root>
        <mxCell id="0" />
        <mxCell id="1" parent="0" />
        <mxCell id="3nuBFxr9cyL0pnOWT2aG-1" value="Customer : User" style="shape=umlLifeline;perimeter=lifelinePerimeter;container=1;collapsible=0;recursiveResize=0;rounded=0;shadow=0;strokeWidth=1;" parent="1" vertex="1">
          <mxGeometry x="3" y="80" width="100" height="360" as="geometry" />
        </mxCell>
        <mxCell id="3nuBFxr9cyL0pnOWT2aG-2" value="" style="points=[];perimeter=orthogonalPerimeter;rounded=0;shadow=0;strokeWidth=1;" parent="3nuBFxr9cyL0pnOWT2aG-1" vertex="1">
          <mxGeometry x="45" y="70" width="10" height="290" as="geometry" />
        </mxCell>
        <mxCell id="3nuBFxr9cyL0pnOWT2aG-5" value="Products:UI" style="shape=umlLifeline;perimeter=lifelinePerimeter;container=1;collapsible=0;recursiveResize=0;rounded=0;shadow=0;strokeWidth=1;" parent="1" vertex="1">
          <mxGeometry x="279" y="80" width="100" height="410" as="geometry" />
        </mxCell>
        <mxCell id="3nuBFxr9cyL0pnOWT2aG-6" value="" style="points=[];perimeter=orthogonalPerimeter;rounded=0;shadow=0;strokeWidth=1;" parent="3nuBFxr9cyL0pnOWT2aG-5" vertex="1">
          <mxGeometry x="45" y="80" width="10" height="160" as="geometry" />
        </mxCell>
        <mxCell id="WMuQ79pfQLYLZ4muD94g-12" value="" style="endArrow=classic;html=1;fontSize=12;exitX=0.6;exitY=0.575;exitDx=0;exitDy=0;exitPerimeter=0;" parent="3nuBFxr9cyL0pnOWT2aG-5" edge="1">
          <mxGeometry width="50" height="50" relative="1" as="geometry">
            <mxPoint x="56" y="172" as="sourcePoint" />
            <mxPoint x="196" y="172" as="targetPoint" />
          </mxGeometry>
        </mxCell>
        <mxCell id="3nuBFxr9cyL0pnOWT2aG-8" value="Login " style="verticalAlign=bottom;endArrow=block;shadow=0;strokeWidth=1;entryX=0.2;entryY=-0.006;entryDx=0;entryDy=0;entryPerimeter=0;fontSize=12;" parent="1" edge="1">
          <mxGeometry relative="1" as="geometry">
            <mxPoint x="58" y="167.03999999999996" as="sourcePoint" />
            <mxPoint x="197" y="167.03999999999996" as="targetPoint" />
          </mxGeometry>
        </mxCell>
        <mxCell id="3nuBFxr9cyL0pnOWT2aG-9" value="Access to System" style="verticalAlign=bottom;endArrow=block;shadow=0;strokeWidth=1;exitX=0.5;exitY=0.25;exitDx=0;exitDy=0;exitPerimeter=0;fontSize=12;" parent="1" edge="1">
          <mxGeometry relative="1" as="geometry">
            <mxPoint x="200" y="199" as="sourcePoint" />
            <mxPoint x="60" y="200" as="targetPoint" />
          </mxGeometry>
        </mxCell>
        <mxCell id="WMuQ79pfQLYLZ4muD94g-1" value="Cart : UI" style="shape=umlLifeline;perimeter=lifelinePerimeter;container=1;collapsible=0;recursiveResize=0;rounded=0;shadow=0;strokeWidth=1;" parent="1" vertex="1">
          <mxGeometry x="428" y="80" width="100" height="410" as="geometry" />
        </mxCell>
        <mxCell id="WMuQ79pfQLYLZ4muD94g-2" value="" style="points=[];perimeter=orthogonalPerimeter;rounded=0;shadow=0;strokeWidth=1;" parent="WMuQ79pfQLYLZ4muD94g-1" vertex="1">
          <mxGeometry x="45" y="80" width="10" height="160" as="geometry" />
        </mxCell>
        <mxCell id="WMuQ79pfQLYLZ4muD94g-3" value="Making own : UI" style="shape=umlLifeline;perimeter=lifelinePerimeter;container=1;collapsible=0;recursiveResize=0;rounded=0;shadow=0;strokeWidth=1;" parent="1" vertex="1">
          <mxGeometry x="585" y="81" width="100" height="409" as="geometry" />
        </mxCell>
        <mxCell id="WMuQ79pfQLYLZ4muD94g-4" value="" style="points=[];perimeter=orthogonalPerimeter;rounded=0;shadow=0;strokeWidth=1;" parent="WMuQ79pfQLYLZ4muD94g-3" vertex="1">
          <mxGeometry x="45" y="279" width="10" height="41" as="geometry" />
        </mxCell>
        <mxCell id="WMuQ79pfQLYLZ4muD94g-5" value="Admin:System" style="shape=umlLifeline;perimeter=lifelinePerimeter;container=1;collapsible=0;recursiveResize=0;rounded=0;shadow=0;strokeWidth=1;" parent="1" vertex="1">
          <mxGeometry x="741" y="80" width="100" height="300" as="geometry" />
        </mxCell>
        <mxCell id="WMuQ79pfQLYLZ4muD94g-6" value="" style="points=[];perimeter=orthogonalPerimeter;rounded=0;shadow=0;strokeWidth=1;" parent="WMuQ79pfQLYLZ4muD94g-5" vertex="1">
          <mxGeometry x="45" y="80" width="10" height="160" as="geometry" />
        </mxCell>
        <mxCell id="WMuQ79pfQLYLZ4muD94g-7" value="Login:UI" style="shape=umlLifeline;perimeter=lifelinePerimeter;container=1;collapsible=0;recursiveResize=0;rounded=0;shadow=0;strokeWidth=1;" parent="1" vertex="1">
          <mxGeometry x="150" y="80" width="100" height="410" as="geometry" />
        </mxCell>
        <mxCell id="WMuQ79pfQLYLZ4muD94g-8" value="" style="points=[];perimeter=orthogonalPerimeter;rounded=0;shadow=0;strokeWidth=1;" parent="WMuQ79pfQLYLZ4muD94g-7" vertex="1">
          <mxGeometry x="45" y="79" width="10" height="160" as="geometry" />
        </mxCell>
        <mxCell id="WMuQ79pfQLYLZ4muD94g-10" value="" style="endArrow=classic;html=1;" parent="1" edge="1">
          <mxGeometry width="50" height="50" relative="1" as="geometry">
            <mxPoint x="60" y="241" as="sourcePoint" />
            <mxPoint x="323.5" y="241" as="targetPoint" />
          </mxGeometry>
        </mxCell>
        <mxCell id="WMuQ79pfQLYLZ4muD94g-11" value="Select Stickers / Deco" style="text;html=1;align=center;verticalAlign=middle;resizable=0;points=[];autosize=1;strokeColor=none;" parent="1" vertex="1">
          <mxGeometry x="64" y="220" width="130" height="20" as="geometry" />
        </mxCell>
        <mxCell id="WMuQ79pfQLYLZ4muD94g-13" value="Add to Cart" style="text;html=1;align=center;verticalAlign=middle;resizable=0;points=[];autosize=1;strokeColor=none;fontSize=12;" parent="1" vertex="1">
          <mxGeometry x="360" y="235" width="80" height="20" as="geometry" />
        </mxCell>
        <mxCell id="WMuQ79pfQLYLZ4muD94g-14" value="" style="endArrow=classic;html=1;fontSize=12;entryX=0.2;entryY=0.625;entryDx=0;entryDy=0;entryPerimeter=0;exitX=0.9;exitY=0.619;exitDx=0;exitDy=0;exitPerimeter=0;" parent="1" source="WMuQ79pfQLYLZ4muD94g-2" target="WMuQ79pfQLYLZ4muD94g-6" edge="1">
          <mxGeometry width="50" height="50" relative="1" as="geometry">
            <mxPoint x="490" y="260" as="sourcePoint" />
            <mxPoint x="540" y="260" as="targetPoint" />
          </mxGeometry>
        </mxCell>
        <mxCell id="WMuQ79pfQLYLZ4muD94g-15" value="Making Order" style="text;html=1;align=center;verticalAlign=middle;resizable=0;points=[];autosize=1;strokeColor=none;fontSize=12;" parent="1" vertex="1">
          <mxGeometry x="535" y="238" width="90" height="20" as="geometry" />
        </mxCell>
        <mxCell id="WMuQ79pfQLYLZ4muD94g-16" value="" style="endArrow=classic;html=1;fontSize=12;exitX=0.4;exitY=0.875;exitDx=0;exitDy=0;exitPerimeter=0;" parent="1" edge="1">
          <mxGeometry width="50" height="50" relative="1" as="geometry">
            <mxPoint x="788" y="300" as="sourcePoint" />
            <mxPoint x="58" y="300" as="targetPoint" />
          </mxGeometry>
        </mxCell>
        <mxCell id="WMuQ79pfQLYLZ4muD94g-17" value="Confirming Order " style="text;html=1;align=center;verticalAlign=middle;resizable=0;points=[];autosize=1;strokeColor=none;fontSize=12;" parent="1" vertex="1">
          <mxGeometry x="335" y="280" width="110" height="20" as="geometry" />
        </mxCell>
        <mxCell id="WMuQ79pfQLYLZ4muD94g-18" value="" style="points=[];perimeter=orthogonalPerimeter;rounded=0;shadow=0;strokeWidth=1;" parent="1" vertex="1">
          <mxGeometry x="786" y="360" width="10" height="60" as="geometry" />
        </mxCell>
        <mxCell id="WMuQ79pfQLYLZ4muD94g-21" value="" style="endArrow=classic;html=1;fontSize=12;entryX=0;entryY=0.293;entryDx=0;entryDy=0;entryPerimeter=0;" parent="1" target="WMuQ79pfQLYLZ4muD94g-4" edge="1">
          <mxGeometry width="50" height="50" relative="1" as="geometry">
            <mxPoint x="60" y="368" as="sourcePoint" />
            <mxPoint x="620" y="368" as="targetPoint" />
          </mxGeometry>
        </mxCell>
        <mxCell id="WMuQ79pfQLYLZ4muD94g-22" value="Uploading Designs " style="text;html=1;align=center;verticalAlign=middle;resizable=0;points=[];autosize=1;strokeColor=none;fontSize=12;" parent="1" vertex="1">
          <mxGeometry x="330" y="350" width="120" height="20" as="geometry" />
        </mxCell>
        <mxCell id="WMuQ79pfQLYLZ4muD94g-24" value="" style="endArrow=classic;html=1;fontSize=12;exitX=1;exitY=0.463;exitDx=0;exitDy=0;exitPerimeter=0;" parent="1" source="WMuQ79pfQLYLZ4muD94g-4" edge="1">
          <mxGeometry width="50" height="50" relative="1" as="geometry">
            <mxPoint x="650" y="379" as="sourcePoint" />
            <mxPoint x="786" y="379" as="targetPoint" />
          </mxGeometry>
        </mxCell>
        <mxCell id="WMuQ79pfQLYLZ4muD94g-25" value="" style="endArrow=classic;html=1;fontSize=12;exitX=0;exitY=0.9;exitDx=0;exitDy=0;exitPerimeter=0;" parent="1" source="WMuQ79pfQLYLZ4muD94g-18" edge="1">
          <mxGeometry width="50" height="50" relative="1" as="geometry">
            <mxPoint x="780" y="414" as="sourcePoint" />
            <mxPoint x="61" y="414" as="targetPoint" />
            <Array as="points">
              <mxPoint x="640" y="414" />
            </Array>
          </mxGeometry>
        </mxCell>
        <mxCell id="WMuQ79pfQLYLZ4muD94g-26" value="&amp;nbsp;&amp;nbsp;&amp;nbsp;&amp;nbsp;&amp;nbsp;&amp;nbsp;&amp;nbsp;&amp;nbsp;&amp;nbsp;&amp;nbsp;&amp;nbsp;&amp;nbsp;&amp;nbsp;&amp;nbsp;&amp;nbsp;&amp;nbsp; Requesting Product " style="text;html=1;align=center;verticalAlign=middle;resizable=0;points=[];autosize=1;strokeColor=none;fontSize=12;" parent="1" vertex="1">
          <mxGeometry x="600" y="360" width="180" height="20" as="geometry" />
        </mxCell>
        <mxCell id="WMuQ79pfQLYLZ4muD94g-27" value="Confirming Order" style="text;html=1;align=center;verticalAlign=middle;resizable=0;points=[];autosize=1;strokeColor=none;fontSize=12;" parent="1" vertex="1">
          <mxGeometry x="425" y="390" width="110" height="20" as="geometry" />
        </mxCell>
        <mxCell id="THP3R51hUfZJMjm8nweF-1" value="&lt;font style=&quot;font-size: 16px&quot;&gt;Sequence Diagram - Wall Upgrades &lt;/font&gt;" style="text;html=1;align=center;verticalAlign=middle;resizable=0;points=[];autosize=1;strokeColor=none;" parent="1" vertex="1">
          <mxGeometry x="235" y="10" width="270" height="20" as="geometry" />
        </mxCell>
        <mxCell id="i_HOYCkyy1XBo4YbJCLK-1" value="" style="endArrow=none;dashed=1;html=1;" edge="1" parent="1">
          <mxGeometry width="50" height="50" relative="1" as="geometry">
            <mxPoint x="53" y="493" as="sourcePoint" />
            <mxPoint x="53" y="440" as="targetPoint" />
          </mxGeometry>
        </mxCell>
        <mxCell id="i_HOYCkyy1XBo4YbJCLK-3" value="" style="endArrow=none;dashed=1;html=1;" edge="1" parent="1" target="WMuQ79pfQLYLZ4muD94g-18">
          <mxGeometry width="50" height="50" relative="1" as="geometry">
            <mxPoint x="791" y="480" as="sourcePoint" />
            <mxPoint x="820" y="420" as="targetPoint" />
          </mxGeometry>
        </mxCell>
        <mxCell id="i_HOYCkyy1XBo4YbJCLK-4" value="Making Order " style="text;html=1;align=center;verticalAlign=middle;resizable=0;points=[];autosize=1;strokeColor=none;" vertex="1" parent="1">
          <mxGeometry x="40" y="40" width="90" height="20" as="geometry" />
        </mxCell>
      </root>
    </mxGraphModel>
  </diagram>
</mxfile>
